<svg xmlns="http://www.w3.org/2000/svg" viewBox="0 0 1080 760" class="course" role="img" aria-label="Open Mars basin with a central layered mesa, branching channels, boulders and dune jumps"><defs><linearGradient id="ground" x2=".7" y2="1"><stop stop-color="#b28568"/><stop offset="1" stop-color="#785646"/></linearGradient><radialGradient id="crater"><stop stop-color="#735645"/><stop offset=".72" stop-color="#8f6851"/><stop offset=".9" stop-color="#c29870"/><stop offset="1" stop-color="#a57c5c"/></radialGradient></defs><rect width="1080" height="760" fill="url(#ground)"/><path d="M0 665Q150 590 205 448T420 324Q520 296 559 153T716 0" fill="none" stroke="#d7b891" opacity=".13" stroke-width="35"/><path d="M0 665Q150 590 205 448T420 324Q520 296 559 153T716 0" fill="none" stroke="#604f42" opacity=".1" stroke-width="3"/><path d="M200 457Q374 482 447 560T740 658Q891 691 1080 604" fill="none" stroke="#d7b891" opacity=".13" stroke-width="35"/><path d="M200 457Q374 482 447 560T740 658Q891 691 1080 604" fill="none" stroke="#604f42" opacity=".1" stroke-width="3"/><path d="M420 324Q618 292 729 419T1080 402" fill="none" stroke="#d7b891" opacity=".13" stroke-width="35"/><path d="M420 324Q618 292 729 419T1080 402" fill="none" stroke="#604f42" opacity=".1" stroke-width="3"/><path d="M553 165Q736 212 834 142T1080 86" fill="none" stroke="#d7b891" opacity=".13" stroke-width="35"/><path d="M553 165Q736 212 834 142T1080 86" fill="none" stroke="#604f42" opacity=".1" stroke-width="3"/><path d="M742 657Q789 547 920 503T1080 510" fill="none" stroke="#d7b891" opacity=".13" stroke-width="35"/><path d="M742 657Q789 547 920 503T1080 510" fill="none" stroke="#604f42" opacity=".1" stroke-width="3"/><ellipse cx="222" cy="162" rx="144" ry="100" fill="url(#crater)" opacity=".8"/><ellipse cx="225" cy="164" rx="90" ry="59" fill="#84634f" opacity=".6"/><polygon points="460,356 514,308 617,325 684,389 670,453 609,490 510,455 450,411" fill="#674d40"/><polygon points="469,345 519,307 612,319 671,377 648,428 591,455 507,427 467,393" fill="#91654d"/><polygon points="481,338 523,311 604,321 654,366 632,402 584,433 518,409 479,380" fill="#b08a64"/><polygon points="499,338 531,320 599,332 637,364 614,392 578,414 527,392 495,368" fill="#cdab80"/><path d="M706 252q100-72 220-55" fill="none" stroke="#755544" stroke-width="5" opacity=".35"/><path d="M719 262q100-72 220-55" fill="none" stroke="#755544" stroke-width="5" opacity=".35"/><path d="M732 272q100-72 220-55" fill="none" stroke="#755544" stroke-width="5" opacity=".35"/><path d="M745 282q100-72 220-55" fill="none" stroke="#755544" stroke-width="5" opacity=".35"/><path d="M758 292q100-72 220-55" fill="none" stroke="#755544" stroke-width="5" opacity=".35"/><path d="M750 600q60-55 173-34t125-18" fill="none" stroke="#d4b284" stroke-width="11" opacity=".34"/><path d="M763 613q60-55 173-34t125-18" fill="none" stroke="#d4b284" stroke-width="11" opacity=".34"/><path d="M776 626q60-55 173-34t125-18" fill="none" stroke="#d4b284" stroke-width="11" opacity=".34"/><path d="M789 639q60-55 173-34t125-18" fill="none" stroke="#d4b284" stroke-width="11" opacity=".34"/><path d="M802 652q60-55 173-34t125-18" fill="none" stroke="#d4b284" stroke-width="11" opacity=".34"/><path d="M815 665q60-55 173-34t125-18" fill="none" stroke="#d4b284" stroke-width="11" opacity=".34"/><path d="M828 678q60-55 173-34t125-18" fill="none" stroke="#d4b284" stroke-width="11" opacity=".34"/><path d="M1051 484l4 -4 8 4 -4 4Z" fill="#624c3e" opacity=".22"/><path d="M801 510l2 -2 4 2 -2 2Z" fill="#624c3e" opacity=".22"/><path d="M341 172l5 -5 10 5 -5 5Z" fill="#624c3e" opacity=".22"/><path d="M17 344l4 -4 8 4 -4 4Z" fill="#624c3e" opacity=".22"/><path d="M747 246l4 -4 8 4 -4 4Z" fill="#624c3e" opacity=".22"/><path d="M285 637l2 -2 4 2 -2 2Z" fill="#624c3e" opacity=".22"/><path d="M448 546l4 -4 8 4 -4 4Z" fill="#624c3e" opacity=".22"/><path d="M383 358l3 -3 6 3 -3 3Z" fill="#624c3e" opacity=".22"/><path d="M801 259l5 -5 10 5 -5 5Z" fill="#624c3e" opacity=".22"/><path d="M517 733l5 -5 10 5 -5 5Z" fill="#624c3e" opacity=".22"/><path d="M51 590l5 -5 10 5 -5 5Z" fill="#624c3e" opacity=".22"/><path d="M730 318l4 -4 8 4 -4 4Z" fill="#624c3e" opacity=".22"/><path d="M576 619l4 -4 8 4 -4 4Z" fill="#624c3e" opacity=".22"/><path d="M216 187l2 -2 4 2 -2 2Z" fill="#624c3e" opacity=".22"/><path d="M890 699l4 -4 8 4 -4 4Z" fill="#624c3e" opacity=".22"/><path d="M560 205l3 -3 6 3 -3 3Z" fill="#624c3e" opacity=".22"/><path d="M962 122l3 -3 6 3 -3 3Z" fill="#624c3e" opacity=".22"/><path d="M401 137l3 -3 6 3 -3 3Z" fill="#624c3e" opacity=".22"/><path d="M626 410l2 -2 4 2 -2 2Z" fill="#624c3e" opacity=".22"/><path d="M53 420l3 -3 6 3 -3 3Z" fill="#624c3e" opacity=".22"/><path d="M287 144l5 -5 10 5 -5 5Z" fill="#624c3e" opacity=".22"/><path d="M811 266l2 -2 4 2 -2 2Z" fill="#624c3e" opacity=".22"/><path d="M732 35l3 -3 6 3 -3 3Z" fill="#624c3e" opacity=".22"/><path d="M773 484l5 -5 10 5 -5 5Z" fill="#624c3e" opacity=".22"/><path d="M641 118l5 -5 10 5 -5 5Z" fill="#624c3e" opacity=".22"/><path d="M86 456l3 -3 6 3 -3 3Z" fill="#624c3e" opacity=".22"/><path d="M214 47l5 -5 10 5 -5 5Z" fill="#624c3e" opacity=".22"/><path d="M404 381l4 -4 8 4 -4 4Z" fill="#624c3e" opacity=".22"/><path d="M53 501l5 -5 10 5 -5 5Z" fill="#624c3e" opacity=".22"/><path d="M1054 362l3 -3 6 3 -3 3Z" fill="#624c3e" opacity=".22"/><path d="M576 433l4 -4 8 4 -4 4Z" fill="#624c3e" opacity=".22"/><path d="M895 721l3 -3 6 3 -3 3Z" fill="#624c3e" opacity=".22"/><path d="M99 550l2 -2 4 2 -2 2Z" fill="#624c3e" opacity=".22"/><path d="M356 97l3 -3 6 3 -3 3Z" fill="#624c3e" opacity=".22"/><path d="M538 76l4 -4 8 4 -4 4Z" fill="#624c3e" opacity=".22"/><path d="M1066 239l3 -3 6 3 -3 3Z" fill="#624c3e" opacity=".22"/><path d="M928 195l2 -2 4 2 -2 2Z" fill="#624c3e" opacity=".22"/><path d="M495 610l5 -5 10 5 -5 5Z" fill="#624c3e" opacity=".22"/><path d="M651 389l3 -3 6 3 -3 3Z" fill="#624c3e" opacity=".22"/><path d="M482 258l4 -4 8 4 -4 4Z" fill="#624c3e" opacity=".22"/><path d="M722 544l2 -2 4 2 -2 2Z" fill="#624c3e" opacity=".22"/><path d="M645 412l4 -4 8 4 -4 4Z" fill="#624c3e" opacity=".22"/><path d="M1021 109l5 -5 10 5 -5 5Z" fill="#624c3e" opacity=".22"/><path d="M263 88l3 -3 6 3 -3 3Z" fill="#624c3e" opacity=".22"/><path d="M774 237l4 -4 8 4 -4 4Z" fill="#624c3e" opacity=".22"/><path d="M949 155l3 -3 6 3 -3 3Z" fill="#624c3e" opacity=".22"/><path d="M85 656l5 -5 10 5 -5 5Z" fill="#624c3e" opacity=".22"/><path d="M505 469l5 -5 10 5 -5 5Z" fill="#624c3e" opacity=".22"/><path d="M231 330l3 -3 6 3 -3 3Z" fill="#624c3e" opacity=".22"/><path d="M1015 64l3 -3 6 3 -3 3Z" fill="#624c3e" opacity=".22"/><path d="M497 190l5 -5 10 5 -5 5Z" fill="#624c3e" opacity=".22"/><path d="M914 458l5 -5 10 5 -5 5Z" fill="#624c3e" opacity=".22"/><path d="M472 173l2 -2 4 2 -2 2Z" fill="#624c3e" opacity=".22"/><path d="M949 488l4 -4 8 4 -4 4Z" fill="#624c3e" opacity=".22"/><path d="M632 337l4 -4 8 4 -4 4Z" fill="#624c3e" opacity=".22"/><path d="M522 388l4 -4 8 4 -4 4Z" fill="#624c3e" opacity=".22"/><path d="M368 246l2 -2 4 2 -2 2Z" fill="#624c3e" opacity=".22"/><path d="M761 22l3 -3 6 3 -3 3Z" fill="#624c3e" opacity=".22"/><path d="M672 258l5 -5 10 5 -5 5Z" fill="#624c3e" opacity=".22"/><path d="M496 538l5 -5 10 5 -5 5Z" fill="#624c3e" opacity=".22"/><path d="M1050 107l4 -4 8 4 -4 4Z" fill="#624c3e" opacity=".22"/><path d="M744 191l2 -2 4 2 -2 2Z" fill="#624c3e" opacity=".22"/><path d="M752 371l5 -5 10 5 -5 5Z" fill="#624c3e" opacity=".22"/><path d="M558 74l4 -4 8 4 -4 4Z" fill="#624c3e" opacity=".22"/><path d="M682 335l5 -5 10 5 -5 5Z" fill="#624c3e" opacity=".22"/><path d="M315 452l2 -2 4 2 -2 2Z" fill="#624c3e" opacity=".22"/><path d="M148 523l4 -4 8 4 -4 4Z" fill="#624c3e" opacity=".22"/><path d="M612 94l2 -2 4 2 -2 2Z" fill="#624c3e" opacity=".22"/><path d="M258 372l2 -2 4 2 -2 2Z" fill="#624c3e" opacity=".22"/><path d="M217 691l3 -3 6 3 -3 3Z" fill="#624c3e" opacity=".22"/><path d="M766 533l3 -3 6 3 -3 3Z" fill="#624c3e" opacity=".22"/><path d="M579 685l4 -4 8 4 -4 4Z" fill="#624c3e" opacity=".22"/><path d="M1060 266l5 -5 10 5 -5 5Z" fill="#624c3e" opacity=".22"/><path d="M83 371l5 -5 10 5 -5 5Z" fill="#624c3e" opacity=".22"/><path d="M121 20l2 -2 4 2 -2 2Z" fill="#624c3e" opacity=".22"/><path d="M327 77l4 -4 8 4 -4 4Z" fill="#624c3e" opacity=".22"/><path d="M912 611l5 -5 10 5 -5 5Z" fill="#624c3e" opacity=".22"/><path d="M59 305l3 -3 6 3 -3 3Z" fill="#624c3e" opacity=".22"/><path d="M824 420l4 -4 8 4 -4 4Z" fill="#624c3e" opacity=".22"/><path d="M910 432l5 -5 10 5 -5 5Z" fill="#624c3e" opacity=".22"/><path d="M393 303l2 -2 4 2 -2 2Z" fill="#624c3e" opacity=".22"/><path d="M659 127l5 -5 10 5 -5 5Z" fill="#624c3e" opacity=".22"/><path d="M590 269l3 -3 6 3 -3 3Z" fill="#624c3e" opacity=".22"/><path d="M80 220l2 -2 4 2 -2 2Z" fill="#624c3e" opacity=".22"/><path d="M708 570l4 -4 8 4 -4 4Z" fill="#624c3e" opacity=".22"/><path d="M712 63l5 -5 10 5 -5 5Z" fill="#624c3e" opacity=".22"/><path d="M249 478l3 -3 6 3 -3 3Z" fill="#624c3e" opacity=".22"/><path d="M640 703l2 -2 4 2 -2 2Z" fill="#624c3e" opacity=".22"/><path d="M950 238l3 -3 6 3 -3 3Z" fill="#624c3e" opacity=".22"/><path d="M87 32l5 -5 10 5 -5 5Z" fill="#624c3e" opacity=".22"/><path d="M924 574l2 -2 4 2 -2 2Z" fill="#624c3e" opacity=".22"/><path d="M692 457l4 -4 8 4 -4 4Z" fill="#624c3e" opacity=".22"/><path d="M933 587l4 -4 8 4 -4 4Z" fill="#624c3e" opacity=".22"/><path d="M260 449l5 -5 10 5 -5 5Z" fill="#624c3e" opacity=".22"/><path d="M419 108l3 -3 6 3 -3 3Z" fill="#624c3e" opacity=".22"/><path d="M610 346l2 -2 4 2 -2 2Z" fill="#624c3e" opacity=".22"/><path d="M337 360l2 -2 4 2 -2 2Z" fill="#624c3e" opacity=".22"/><path d="M557 518l2 -2 4 2 -2 2Z" fill="#624c3e" opacity=".22"/><path d="M55 396l5 -5 10 5 -5 5Z" fill="#624c3e" opacity=".22"/><path d="M845 215l5 -5 10 5 -5 5Z" fill="#624c3e" opacity=".22"/><path d="M67 386l5 -5 10 5 -5 5Z" fill="#624c3e" opacity=".22"/><path d="M571 179l2 -2 4 2 -2 2Z" fill="#624c3e" opacity=".22"/><path d="M406 418l2 -2 4 2 -2 2Z" fill="#624c3e" opacity=".22"/><path d="M378 264l2 -2 4 2 -2 2Z" fill="#624c3e" opacity=".22"/><path d="M744 529l3 -3 6 3 -3 3Z" fill="#624c3e" opacity=".22"/><path d="M781 40l3 -3 6 3 -3 3Z" fill="#624c3e" opacity=".22"/><path d="M423 399l2 -2 4 2 -2 2Z" fill="#624c3e" opacity=".22"/><path d="M329 722l2 -2 4 2 -2 2Z" fill="#624c3e" opacity=".22"/><path d="M510 603l4 -4 8 4 -4 4Z" fill="#624c3e" opacity=".22"/><path d="M584 300l5 -5 10 5 -5 5Z" fill="#624c3e" opacity=".22"/><path d="M209 179l2 -2 4 2 -2 2Z" fill="#624c3e" opacity=".22"/><path d="M50 216l5 -5 10 5 -5 5Z" fill="#624c3e" opacity=".22"/><path d="M46 510l3 -3 6 3 -3 3Z" fill="#624c3e" opacity=".22"/><path d="M322 139l4 -4 8 4 -4 4Z" fill="#624c3e" opacity=".22"/><path d="M410 86l3 -3 6 3 -3 3Z" fill="#624c3e" opacity=".22"/><path d="M1004 133l3 -3 6 3 -3 3Z" fill="#624c3e" opacity=".22"/><path d="M330 692l4 -4 8 4 -4 4Z" fill="#624c3e" opacity=".22"/><path d="M322 427l5 -5 10 5 -5 5Z" fill="#624c3e" opacity=".22"/><path d="M156 348l2 -2 4 2 -2 2Z" fill="#624c3e" opacity=".22"/><path d="M640 488l2 -2 4 2 -2 2Z" fill="#624c3e" opacity=".22"/><path d="M891 82l4 -4 8 4 -4 4Z" fill="#624c3e" opacity=".22"/><path d="M614 486l4 -4 8 4 -4 4Z" fill="#624c3e" opacity=".22"/><path d="M543 447l3 -3 6 3 -3 3Z" fill="#624c3e" opacity=".22"/><path d="M570 148l3 -3 6 3 -3 3Z" fill="#624c3e" opacity=".22"/><path d="M695 668l4 -4 8 4 -4 4Z" fill="#624c3e" opacity=".22"/><path d="M40 397l5 -5 10 5 -5 5Z" fill="#624c3e" opacity=".22"/><path d="M964 56l5 -5 10 5 -5 5Z" fill="#624c3e" opacity=".22"/><path d="M795 343l2 -2 4 2 -2 2Z" fill="#624c3e" opacity=".22"/><path d="M551 412l4 -4 8 4 -4 4Z" fill="#624c3e" opacity=".22"/><path d="M685 608l4 -4 8 4 -4 4Z" fill="#624c3e" opacity=".22"/><path d="M546 44l3 -3 6 3 -3 3Z" fill="#624c3e" opacity=".22"/><path d="M120 623l4 -4 8 4 -4 4Z" fill="#624c3e" opacity=".22"/><path d="M162 576l5 -5 10 5 -5 5Z" fill="#624c3e" opacity=".22"/><path d="M907 539l5 -5 10 5 -5 5Z" fill="#624c3e" opacity=".22"/><path d="M964 82l5 -5 10 5 -5 5Z" fill="#624c3e" opacity=".22"/><path d="M773 640l4 -4 8 4 -4 4Z" fill="#624c3e" opacity=".22"/><path d="M108 453l3 -3 6 3 -3 3Z" fill="#624c3e" opacity=".22"/><path d="M896 647l2 -2 4 2 -2 2Z" fill="#624c3e" opacity=".22"/><path d="M544 387l4 -4 8 4 -4 4Z" fill="#624c3e" opacity=".22"/><path d="M398 330l2 -2 4 2 -2 2Z" fill="#624c3e" opacity=".22"/><path d="M1015 269l2 -2 4 2 -2 2Z" fill="#624c3e" opacity=".22"/><path d="M330 58l5 -5 10 5 -5 5Z" fill="#624c3e" opacity=".22"/><path d="M472 626l2 -2 4 2 -2 2Z" fill="#624c3e" opacity=".22"/><path d="M459 157l2 -2 4 2 -2 2Z" fill="#624c3e" opacity=".22"/><path d="M422 656l5 -5 10 5 -5 5Z" fill="#624c3e" opacity=".22"/><path d="M741 479l2 -2 4 2 -2 2Z" fill="#624c3e" opacity=".22"/><path d="M580 441l3 -3 6 3 -3 3Z" fill="#624c3e" opacity=".22"/><path d="M202 332l2 -2 4 2 -2 2Z" fill="#624c3e" opacity=".22"/><path d="M840 342l4 -4 8 4 -4 4Z" fill="#624c3e" opacity=".22"/><path d="M550 744l4 -4 8 4 -4 4Z" fill="#624c3e" opacity=".22"/><path d="M826 693l4 -4 8 4 -4 4Z" fill="#624c3e" opacity=".22"/><path d="M668 248l2 -2 4 2 -2 2Z" fill="#624c3e" opacity=".22"/><path d="M272 691l2 -2 4 2 -2 2Z" fill="#624c3e" opacity=".22"/><path d="M706 25l3 -3 6 3 -3 3Z" fill="#624c3e" opacity=".22"/><path d="M829 218l3 -3 6 3 -3 3Z" fill="#624c3e" opacity=".22"/><path d="M953 738l4 -4 8 4 -4 4Z" fill="#624c3e" opacity=".22"/><path d="M284 303l3 -3 6 3 -3 3Z" fill="#624c3e" opacity=".22"/><path d="M508 644l4 -4 8 4 -4 4Z" fill="#624c3e" opacity=".22"/><path d="M533 626l2 -2 4 2 -2 2Z" fill="#624c3e" opacity=".22"/><path d="M172 476l2 -2 4 2 -2 2Z" fill="#624c3e" opacity=".22"/><path d="M150 731l3 -3 6 3 -3 3Z" fill="#624c3e" opacity=".22"/><path d="M822 711l3 -3 6 3 -3 3Z" fill="#624c3e" opacity=".22"/><path d="M847 603l5 -5 10 5 -5 5Z" fill="#624c3e" opacity=".22"/><path d="M900 600l3 -3 6 3 -3 3Z" fill="#624c3e" opacity=".22"/><path d="M78 113l3 -3 6 3 -3 3Z" fill="#624c3e" opacity=".22"/><path d="M703 101l4 -4 8 4 -4 4Z" fill="#624c3e" opacity=".22"/><path d="M169 334l4 -4 8 4 -4 4Z" fill="#624c3e" opacity=".22"/><path d="M279 329l3 -3 6 3 -3 3Z" fill="#624c3e" opacity=".22"/><path d="M776 653l2 -2 4 2 -2 2Z" fill="#624c3e" opacity=".22"/><path d="M40 616l3 -3 6 3 -3 3Z" fill="#624c3e" opacity=".22"/><path d="M842 515l4 -4 8 4 -4 4Z" fill="#624c3e" opacity=".22"/><path d="M848 425l5 -5 10 5 -5 5Z" fill="#624c3e" opacity=".22"/><path d="M834 635l2 -2 4 2 -2 2Z" fill="#624c3e" opacity=".22"/><path d="M847 437l2 -2 4 2 -2 2Z" fill="#624c3e" opacity=".22"/><path d="M744 444l3 -3 6 3 -3 3Z" fill="#624c3e" opacity=".22"/><path d="M706 523l4 -4 8 4 -4 4Z" fill="#624c3e" opacity=".22"/><path d="M372 742l2 -2 4 2 -2 2Z" fill="#624c3e" opacity=".22"/><path d="M24 739l5 -5 10 5 -5 5Z" fill="#624c3e" opacity=".22"/><path d="M729 248l3 -3 6 3 -3 3Z" fill="#624c3e" opacity=".22"/><path d="M631 457l2 -2 4 2 -2 2Z" fill="#624c3e" opacity=".22"/><path d="M759 615l5 -5 10 5 -5 5Z" fill="#624c3e" opacity=".22"/><path d="M371 58l4 -4 8 4 -4 4Z" fill="#624c3e" opacity=".22"/><path d="M462 527l3 -3 6 3 -3 3Z" fill="#624c3e" opacity=".22"/><path d="M608 187l2 -2 4 2 -2 2Z" fill="#624c3e" opacity=".22"/><path d="M112 623l5 -5 10 5 -5 5Z" fill="#624c3e" opacity=".22"/><path d="M782 579l2 -2 4 2 -2 2Z" fill="#624c3e" opacity=".22"/><path d="M955 485l3 -3 6 3 -3 3Z" fill="#624c3e" opacity=".22"/><path d="M640 99l3 -3 6 3 -3 3Z" fill="#624c3e" opacity=".22"/><path d="M1063 427l2 -2 4 2 -2 2Z" fill="#624c3e" opacity=".22"/><path d="M1030 674l5 -5 10 5 -5 5Z" fill="#624c3e" opacity=".22"/><path d="M494 54l3 -3 6 3 -3 3Z" fill="#624c3e" opacity=".22"/><path d="M514 463l4 -4 8 4 -4 4Z" fill="#624c3e" opacity=".22"/><path d="M599 741l3 -3 6 3 -3 3Z" fill="#624c3e" opacity=".22"/><path d="M627 286l2 -2 4 2 -2 2Z" fill="#624c3e" opacity=".22"/><path d="M737 463l3 -3 6 3 -3 3Z" fill="#624c3e" opacity=".22"/><path d="M360 117l2 -2 4 2 -2 2Z" fill="#624c3e" opacity=".22"/><path d="M731 489l2 -2 4 2 -2 2Z" fill="#624c3e" opacity=".22"/><path d="M394 392l5 -5 10 5 -5 5Z" fill="#624c3e" opacity=".22"/><path d="M585 335l3 -3 6 3 -3 3Z" fill="#624c3e" opacity=".22"/><path d="M847 704l5 -5 10 5 -5 5Z" fill="#624c3e" opacity=".22"/><path d="M26 405l2 -2 4 2 -2 2Z" fill="#624c3e" opacity=".22"/><path d="M775 424l3 -3 6 3 -3 3Z" fill="#624c3e" opacity=".22"/><path d="M816 429l3 -3 6 3 -3 3Z" fill="#624c3e" opacity=".22"/><path d="M185 379l2 -2 4 2 -2 2Z" fill="#624c3e" opacity=".22"/><path d="M836 373l2 -2 4 2 -2 2Z" fill="#624c3e" opacity=".22"/><path d="M222 721l3 -3 6 3 -3 3Z" fill="#624c3e" opacity=".22"/><path d="M305 573l5 -5 10 5 -5 5Z" fill="#624c3e" opacity=".22"/><path d="M840 653l5 -5 10 5 -5 5Z" fill="#624c3e" opacity=".22"/><path d="M23 283l2 -2 4 2 -2 2Z" fill="#624c3e" opacity=".22"/><path d="M215 189l5 -5 10 5 -5 5Z" fill="#624c3e" opacity=".22"/><path d="M1063 638l2 -2 4 2 -2 2Z" fill="#624c3e" opacity=".22"/><path d="M274 382l2 -2 4 2 -2 2Z" fill="#624c3e" opacity=".22"/><path d="M573 273l5 -5 10 5 -5 5Z" fill="#624c3e" opacity=".22"/><path d="M633 318l3 -3 6 3 -3 3Z" fill="#624c3e" opacity=".22"/><path d="M842 702l4 -4 8 4 -4 4Z" fill="#624c3e" opacity=".22"/><path d="M858 459l3 -3 6 3 -3 3Z" fill="#624c3e" opacity=".22"/><path d="M972 108l2 -2 4 2 -2 2Z" fill="#624c3e" opacity=".22"/><path d="M543 502l2 -2 4 2 -2 2Z" fill="#624c3e" opacity=".22"/><path d="M387 81l3 -3 6 3 -3 3Z" fill="#624c3e" opacity=".22"/><path d="M619 637l2 -2 4 2 -2 2Z" fill="#624c3e" opacity=".22"/><path d="M428 284l5 -5 10 5 -5 5Z" fill="#624c3e" opacity=".22"/><path d="M837 550l5 -5 10 5 -5 5Z" fill="#624c3e" opacity=".22"/><path d="M796 708l5 -5 10 5 -5 5Z" fill="#624c3e" opacity=".22"/><path d="M544 344l4 -4 8 4 -4 4Z" fill="#624c3e" opacity=".22"/><path d="M961 532l3 -3 6 3 -3 3Z" fill="#624c3e" opacity=".22"/><path d="M831 593l3 -3 6 3 -3 3Z" fill="#624c3e" opacity=".22"/><path d="M120 363l5 -5 10 5 -5 5Z" fill="#624c3e" opacity=".22"/><path d="M232 444l3 -3 6 3 -3 3Z" fill="#624c3e" opacity=".22"/><path d="M613 415l2 -2 4 2 -2 2Z" fill="#624c3e" opacity=".22"/><path d="M735 594l3 -3 6 3 -3 3Z" fill="#624c3e" opacity=".22"/><path d="M1060 428l3 -3 6 3 -3 3Z" fill="#624c3e" opacity=".22"/><path d="M594 581l4 -4 8 4 -4 4Z" fill="#624c3e" opacity=".22"/><path d="M71 212l2 -2 4 2 -2 2Z" fill="#624c3e" opacity=".22"/><path d="M1003 662l3 -3 6 3 -3 3Z" fill="#624c3e" opacity=".22"/><path d="M997 384l2 -2 4 2 -2 2Z" fill="#624c3e" opacity=".22"/><path d="M148 67l4 -4 8 4 -4 4Z" fill="#624c3e" opacity=".22"/><path d="M70 169l4 -4 8 4 -4 4Z" fill="#624c3e" opacity=".22"/><path d="M972 51l4 -4 8 4 -4 4Z" fill="#624c3e" opacity=".22"/><path d="M840 119l5 -5 10 5 -5 5Z" fill="#624c3e" opacity=".22"/><path d="M628 256l5 -5 10 5 -5 5Z" fill="#624c3e" opacity=".22"/><path d="M25 88l5 -5 10 5 -5 5Z" fill="#624c3e" opacity=".22"/><path d="M624 672l3 -3 6 3 -3 3Z" fill="#624c3e" opacity=".22"/><path d="M713 218l2 -2 4 2 -2 2Z" fill="#624c3e" opacity=".22"/><path d="M257 609l4 -4 8 4 -4 4Z" fill="#624c3e" opacity=".22"/><path d="M311 428l4 -4 8 4 -4 4Z" fill="#624c3e" opacity=".22"/><path d="M677 623l2 -2 4 2 -2 2Z" fill="#624c3e" opacity=".22"/><path d="M283 682l5 -5 10 5 -5 5Z" fill="#624c3e" opacity=".22"/><path d="M564 172l4 -4 8 4 -4 4Z" fill="#624c3e" opacity=".22"/><path d="M208 334l5 -5 10 5 -5 5Z" fill="#624c3e" opacity=".22"/><path d="M870 504l3 -3 6 3 -3 3Z" fill="#624c3e" opacity=".22"/><path d="M964 309l5 -5 10 5 -5 5Z" fill="#624c3e" opacity=".22"/><path d="M384 252l3 -3 6 3 -3 3Z" fill="#624c3e" opacity=".22"/><path d="M957 243l3 -3 6 3 -3 3Z" fill="#624c3e" opacity=".22"/><path d="M674 74l4 -4 8 4 -4 4Z" fill="#624c3e" opacity=".22"/><path d="M556 38l2 -2 4 2 -2 2Z" fill="#624c3e" opacity=".22"/><path d="M1018 419l3 -3 6 3 -3 3Z" fill="#624c3e" opacity=".22"/><path d="M749 118l3 -3 6 3 -3 3Z" fill="#624c3e" opacity=".22"/><path d="M292 111l3 -3 6 3 -3 3Z" fill="#624c3e" opacity=".22"/><path d="M592 255l4 -4 8 4 -4 4Z" fill="#624c3e" opacity=".22"/><path d="M771 665l3 -3 6 3 -3 3Z" fill="#624c3e" opacity=".22"/><path d="M330 347l18 -12.6 28.8 7.2 -5.3999999999999995 18 -27.0 3.6Z" fill="#725341" stroke="#9c7956" stroke-width="2"/><path d="M301 378l12 -8.399999999999999 19.200000000000003 4.800000000000001 -3.5999999999999996 12 -18.0 2.4000000000000004Z" fill="#725341" stroke="#9c7956" stroke-width="2"/><path d="M320 416l14 -9.799999999999999 22.400000000000002 5.6000000000000005 -4.2 14 -21.0 2.8000000000000003Z" fill="#725341" stroke="#9c7956" stroke-width="2"/><path d="M847 351l20 -14.0 32.0 8.0 -6.0 20 -30.0 4.0Z" fill="#725341" stroke="#9c7956" stroke-width="2"/><path d="M891 296l14 -9.799999999999999 22.400000000000002 5.6000000000000005 -4.2 14 -21.0 2.8000000000000003Z" fill="#725341" stroke="#9c7956" stroke-width="2"/><path d="M398 581l17 -11.899999999999999 27.200000000000003 6.800000000000001 -5.1 17 -25.5 3.4000000000000004Z" fill="#725341" stroke="#9c7956" stroke-width="2"/><path d="M143 471l11 -7.699999999999999 17.6 4.4 -3.3 11 -16.5 2.2Z" fill="#725341" stroke="#9c7956" stroke-width="2"/><path d="M757 97l23 -16.099999999999998 36.800000000000004 9.200000000000001 -6.8999999999999995 23 -34.5 4.6000000000000005Z" fill="#725341" stroke="#9c7956" stroke-width="2"/><path d="M721 118l12 -8.399999999999999 19.200000000000003 4.800000000000001 -3.5999999999999996 12 -18.0 2.4000000000000004Z" fill="#725341" stroke="#9c7956" stroke-width="2"/><g font-family="Arial" fill="#f1d7b2" font-size="16" letter-spacing="1"><text x="509" y="372">LAYERED</text><text x="524" y="394">MESA</text><text x="110" y="160">OLD CRATER</text><text x="598" y="277">SADDLE</text><text x="283" y="531">CHANNEL BED</text><text x="793" y="239">RIDGE</text><text x="839" y="693">ROLLING DUNES</text></g><g transform="translate(230 620)"><rect x="-25" y="-15" width="30" height="20" fill="#bfc7b9"/><path d="M10-8l20-10 11 14-20 10Z" fill="#435c61"/><text x="0" y="39" text-anchor="middle" fill="#efe1c3" font-size="15" font-family="Arial">BASE CAMP</text></g><g style="display:none" id="lap-layer"><path d="M189 484 C178 548 202 582 230 620 C345 626 408 553 462 574 C580 598 742 552 906 474 C1000 420 981 277 848 189 Q817 173 782 169 C680 111 562 105 544 145 Q547 176 541 205 C523 265 424 305 349 325 C277 339 237 371 217 421 Q201 452 189 484" fill="none" stroke="#132f30" opacity=".6" stroke-width="9"/><path d="M189 484 C178 548 202 582 230 620 C345 626 408 553 462 574 C580 598 742 552 906 474 C1000 420 981 277 848 189 Q817 173 782 169 C680 111 562 105 544 145 Q547 176 541 205 C523 265 424 305 349 325 C277 339 237 371 217 421 Q201 452 189 484" fill="none" stroke="#b4e3ca" stroke-width="4" stroke-dasharray="10 8"/><circle cx="462" cy="574" r="16" fill="#183537" stroke="#c0e9d5" stroke-width="2"/><text x="462" y="579" text-anchor="middle" font-family="Arial" font-size="14" fill="#d9f1e4">1</text><circle cx="906" cy="474" r="16" fill="#183537" stroke="#c0e9d5" stroke-width="2"/><text x="906" y="479" text-anchor="middle" font-family="Arial" font-size="14" fill="#d9f1e4">2</text><circle cx="782" cy="169" r="16" fill="#183537" stroke="#c0e9d5" stroke-width="2"/><text x="782" y="174" text-anchor="middle" font-family="Arial" font-size="14" fill="#d9f1e4">3</text><circle cx="541" cy="205" r="16" fill="#183537" stroke="#c0e9d5" stroke-width="2"/><text x="541" y="210" text-anchor="middle" font-family="Arial" font-size="14" fill="#d9f1e4">4</text><circle cx="349" cy="325" r="16" fill="#183537" stroke="#c0e9d5" stroke-width="2"/><text x="349" y="330" text-anchor="middle" font-family="Arial" font-size="14" fill="#d9f1e4">5</text><circle cx="217" cy="421" r="16" fill="#183537" stroke="#c0e9d5" stroke-width="2"/><text x="217" y="426" text-anchor="middle" font-family="Arial" font-size="14" fill="#d9f1e4">6</text><path d="M167 474L211 494" stroke="#f0e5bd" stroke-width="7"/><path d="M167 474L211 494" stroke="#203335" stroke-width="7" stroke-dasharray="5 5"/><text x="140" y="490" text-anchor="end" font-family="Arial" font-size="14" fill="#fff1cc">START / FINISH</text><path d="M182 512l-7-12 16 4Z" fill="#d5eee0"/></g><g style="display:none" id="sample-layer"><circle cx="616" cy="491" r="22" fill="#e9c982" stroke="#654d37" stroke-width="3"/><text x="616" y="496" text-anchor="middle" fill="#343c36" font-family="Arial" font-size="15">S1</text><text x="616" y="534" text-anchor="middle" fill="#ffdfac" font-family="Arial" font-size="14">Mesa layers</text><circle cx="352" cy="459" r="22" fill="#e9c982" stroke="#654d37" stroke-width="3"/><text x="352" y="464" text-anchor="middle" fill="#343c36" font-family="Arial" font-size="15">S2</text><text x="352" y="502" text-anchor="middle" fill="#ffdfac" font-family="Arial" font-size="14">Channel sediment</text><circle cx="979" cy="161" r="22" fill="#e9c982" stroke="#654d37" stroke-width="3"/><text x="979" y="166" text-anchor="middle" fill="#343c36" font-family="Arial" font-size="15">S3</text><text x="979" y="204" text-anchor="middle" fill="#ffdfac" font-family="Arial" font-size="14">Outer overlook</text></g><g style="display:none" id="discovery-layer" font-family="Arial" fill="#d6e9e7" font-size="14"><path d="M925 606q30-58 60-3" fill="none" stroke="#c9e8e8" stroke-width="3" stroke-dasharray="6 5"/><text x="885" y="563">Dune jump</text><circle cx="767" cy="567" r="10" fill="#b7d6e1"/><text x="677" y="546">Lost test instrument</text><circle cx="232" cy="164" r="10" fill="#b7d6e1"/><text x="168" y="208">Crater-hop ridge</text></g></svg>